<?xml version="1.0" encoding="UTF-8" standalone="no"?>
<!-- Created with Inkscape (http://www.inkscape.org/) -->
<svg
   xmlns:svg="http://www.w3.org/2000/svg"
   xmlns="http://www.w3.org/2000/svg"
   version="1.0"
   width="543.28003pt"
   height="523.89001pt"
   id="svg1339">
  <defs
     id="defs1342" />
  <path
     d="M 62.910305,586.86333 L 125.86516,650.60806 L 354.66003,422.80608 L 582.79529,652.32059 L 649.12836,585.39956 L 419.06211,356.15214 L 538.31924,239.08217 L 656.12237,360.43632 L 672.92355,183.72974 L 632.91916,143.04888 L 643.3629,132.19791 L 578.91235,67.944477 L 566.45233,81.085597 L 489.93282,4.363831 L 390.62711,103.14697 L 467.4617,180.34954 L 355.60522,292.86066 L 249.67092,189.78284 L 335.40773,104.38653 L 238.02361,7.697965 L 153.1742,92.253519 L 144.09633,82.235117 L 78.425241,147.87971 L 87.464971,157.23449 L 4.1797765,239.7581 L 102.32623,337.47278 L 186.38467,253.2337 L 289.76593,358.64588 L 62.910305,586.86333 z "
     style="fill:#000000;fill-opacity:1;fill-rule:evenodd;stroke:#000000;stroke-width:2.8115921;stroke-linecap:butt;stroke-linejoin:miter;stroke-miterlimit:4;stroke-dasharray:none;stroke-opacity:1"
     id="path1348" />
</svg>
